<svg width="64" height="64" viewBox="0 0 64 64" fill="none" xmlns="http://www.w3.org/2000/svg">
<g clip-path="url(#clip0_74_4)">
<path d="M34 10.748C36.616 7.99201 41.128 7.20401 46.448 7.74001C51.384 8.23601 56.46 9.83201 60 11.312V51.004C56.328 49.604 51.572 48.236 46.852 47.764C42.476 47.32 37.74 47.608 34 49.732V10.748ZM32 7.13201C28.06 3.74401 22.348 3.24001 17.148 3.76001C11.092 4.37201 4.98 6.44801 1.172 8.18001C0.822596 8.33892 0.526301 8.59502 0.318484 8.91774C0.110667 9.24046 0.000106286 9.61617 0 10L0 54C9.2648e-05 54.3346 0.0841486 54.6639 0.244468 54.9576C0.404788 55.2514 0.636247 55.5002 0.917643 55.6813C1.19904 55.8624 1.52138 55.97 1.85513 55.9942C2.18889 56.0184 2.52339 55.9585 2.828 55.82C6.356 54.22 12.04 52.296 17.548 51.74C23.184 51.172 27.908 52.088 30.44 55.248C30.6274 55.4816 30.8649 55.6701 31.1349 55.7997C31.4049 55.9292 31.7005 55.9965 32 55.9965C32.2995 55.9965 32.5951 55.9292 32.8651 55.7997C33.1351 55.6701 33.3726 55.4816 33.56 55.248C36.092 52.088 40.816 51.172 46.448 51.74C51.96 52.296 57.648 54.22 61.172 55.82C61.4766 55.9585 61.8111 56.0184 62.1449 55.9942C62.4786 55.97 62.801 55.8624 63.0824 55.6813C63.3638 55.5002 63.5952 55.2514 63.7555 54.9576C63.9159 54.6639 63.9999 54.3346 64 54V10C63.9999 9.61617 63.8893 9.24046 63.6815 8.91774C63.4737 8.59502 63.1774 8.33892 62.828 8.18001C59.02 6.44801 52.908 4.37201 46.852 3.76001C41.652 3.23601 35.94 3.74401 32 7.13201Z" fill="#006973"/>
</g>
<defs>
<clipPath id="clip0_74_4">
<rect width="64" height="64" fill="white"/>
</clipPath>
</defs>
</svg>
